<svg height="64" viewBox="0 0 64 64" width="64" xmlns="http://www.w3.org/2000/svg"><g fill="none" fill-rule="evenodd"><path d="m22.2961061 22.6064668-4.2961061-1.1511381 2.0705524-7.7274066 4.296106 1.1511381c.93211-1.7691328 2.1656726-3.3960128 3.6779008-4.7955973l-2.2230165-3.85037742 6.9282033-4 2.2230164 3.85037739c1.9681898-.60983576 3.9938906-.86469232 5.9920595-.7873568l1.1511381-4.29610607 7.7274067 2.07055236-1.1511382 4.29610607c1.7691328.93210994 3.3960128 2.16567257 4.7955973 3.67790077l3.8503774-2.22301646 4 6.92820326-3.8503774 2.2230164c.6098358 1.9681898.8646924 3.9938906.7873568 5.9920595l4.2961061 1.1511381-2.0705523 7.7274067-4.2961061-1.1511382c-.93211 1.7691328-2.1656726 3.3960128-3.6779008 4.7955973l2.2230165 3.8503774-6.9282033 4-2.2230164-3.8503774c-1.9681898.6098358-3.9938905.8646924-5.9920595.7873568l-1.1511381 4.2961061-7.7274066-2.0705523 1.1511381-4.2961061c-1.7691328-.93211-3.3960128-2.1656726-4.7955973-3.6779008l-3.8503774 2.2230165-4-6.9282033 3.8503774-2.2230164c-.6098358-1.9681898-.8646923-3.9938905-.7873568-5.9920595zm20.9895383 5.87533c2.8697557-1.6568543 3.8530066-5.3263967 2.1961524-8.1961524-1.6568543-2.8697558-5.3263967-3.8530067-8.1961524-2.1961525-2.8697558 1.6568543-3.8530067 5.3263967-2.1961525 8.1961525 1.6568543 2.8697557 5.3263967 3.8530066 8.1961525 2.1961524z" fill="#4796e7"/><path d="m6.262792 48.9140329-2.89161893-.7748069 1.39364539-5.2011554 2.89161892.7748069c.62738366-1.1907662 1.4576688-2.285785 2.47551792-3.227816l-1.49626579-2.5916083 4.66322839-2.6923161 1.4962657 2.5916083c1.3247473-.4104677 2.688204-.5820063 4.0331296-.5299534l.774807-2.8916189 5.2011554 1.3936454-.774807 2.8916189c1.1907662.6273836 2.2857851 1.4576688 3.227816 2.4755179l2.5916083-1.4962658 2.6923162 4.6632284-2.5916083 1.4962657c.4104677 1.3247473.5820063 2.688204.5299533 4.0331296l2.891619.774807-1.3936454 5.2011554-2.8916189-.774807c-.6273837 1.1907662-1.4576688 2.2857851-2.4755179 3.227816l1.4962657 2.5916083-4.6632283 2.6923162-1.4962658-2.5916083c-1.3247473.4104677-2.688204.5820063-4.0331296.5299533l-.7748069 2.891619-5.2011554-1.3936454.7748069-2.8916189c-1.1907662-.6273837-2.285785-1.4576688-3.22781601-2.4755179l-2.5916083 1.4962657-2.69231614-4.6632283 2.5916083-1.4962658c-.41046766-1.3247473-.58200627-2.688204-.52995335-4.0331296zm14.1276182 3.9545614c1.9315724-1.1151938 2.593378-3.5850859 1.4781841-5.5166583-1.1151938-1.9315725-3.5850859-2.593378-5.5166583-1.4781842-1.9315725 1.1151939-2.593378 3.585086-1.4781842 5.5166584 1.1151939 1.9315724 3.585086 2.593378 5.5166584 1.4781841z" fill="#595959" transform="matrix(.96592583 -.25881905 .25881905 .96592583 -12.152178 6.437041)"/></g></svg>